<svg width="876" height="640" viewBox="0 0 876 640" fill="none" xmlns="http://www.w3.org/2000/svg">
<circle cx="318.182" cy="321.818" r="318.182" fill="#BFBFBF" fill-opacity="0.64"/>
<path d="M423.764 503H304.18L275.149 437.482C264.496 413.511 254.908 396.022 246.385 385.013C237.862 373.827 229.517 366.725 221.349 363.707C213.359 360.511 202.972 358.913 190.188 358.913H177.67V503H66.3423V133.859H255.707C286.246 133.859 311.282 140.074 330.813 152.503C350.344 164.932 364.371 180.024 372.894 197.78C381.594 215.535 385.945 232.403 385.945 248.384C385.945 267.027 382.305 282.83 375.025 295.791C367.923 308.575 360.376 317.897 352.386 323.756C344.396 329.616 335.43 335.209 325.487 340.535C337.383 347.46 347.148 355.717 354.783 365.305C362.596 374.715 373.161 393.891 386.477 422.833L423.764 503ZM272.486 250.514C272.486 233.469 266.893 221.572 255.707 214.825C244.521 208.078 226.321 204.705 201.108 204.705H177.67V293.66H201.641C228.807 293.66 247.362 290.731 257.305 284.871C267.425 278.834 272.486 267.382 272.486 250.514ZM856.708 223.614H721.41V503H610.348V223.614H475.05V133.859H856.708V223.614Z" fill="white" fill-opacity="0.8"/>
<path d="M423.764 503V504H425.332L424.671 502.578L423.764 503ZM304.18 503L303.265 503.405L303.529 504H304.18V503ZM275.149 437.482L276.063 437.076L276.063 437.075L275.149 437.482ZM246.385 385.013L245.59 385.62L245.594 385.626L246.385 385.013ZM221.349 363.707L220.978 364.635L220.99 364.64L221.003 364.645L221.349 363.707ZM177.67 358.913V357.913H176.67V358.913H177.67ZM177.67 503V504H178.67V503H177.67ZM66.3423 503H65.3423V504H66.3423V503ZM66.3423 133.859V132.859H65.3423V133.859H66.3423ZM372.894 197.78L371.993 198.213L371.996 198.22L372.894 197.78ZM375.025 295.791L374.153 295.301L374.151 295.306L375.025 295.791ZM325.487 340.535L325.014 339.654L323.436 340.499L324.983 341.4L325.487 340.535ZM354.783 365.305L354.001 365.928L354.007 365.936L354.014 365.943L354.783 365.305ZM386.477 422.833L385.569 423.251L385.571 423.255L386.477 422.833ZM177.67 204.705V203.705H176.67V204.705H177.67ZM177.67 293.66H176.67V294.66H177.67V293.66ZM257.305 284.871L257.812 285.733L257.817 285.73L257.305 284.871ZM423.764 502H304.18V504H423.764V502ZM305.094 502.595L276.063 437.076L274.235 437.887L303.265 503.405L305.094 502.595ZM276.063 437.075C265.4 413.084 255.773 395.507 247.176 384.401L245.594 385.626C254.042 396.537 263.591 413.938 274.235 437.888L276.063 437.075ZM247.18 384.407C238.607 373.155 230.12 365.882 221.696 362.769L221.003 364.645C228.914 367.568 237.118 374.5 245.59 385.62L247.18 384.407ZM221.721 362.778C213.57 359.518 203.044 357.913 190.188 357.913V359.913C202.901 359.913 213.149 361.503 220.978 364.635L221.721 362.778ZM190.188 357.913H177.67V359.913H190.188V357.913ZM176.67 358.913V503H178.67V358.913H176.67ZM177.67 502H66.3423V504H177.67V502ZM67.3423 503V133.859H65.3423V503H67.3423ZM66.3423 134.859H255.707V132.859H66.3423V134.859ZM255.707 134.859C286.116 134.859 310.949 141.047 330.276 153.346L331.35 151.659C311.615 139.1 286.377 132.859 255.707 132.859V134.859ZM330.276 153.346C349.678 165.693 363.564 180.653 371.993 198.213L373.796 197.347C365.179 179.395 351.011 164.171 331.35 151.659L330.276 153.346ZM371.996 198.22C380.645 215.87 384.945 232.588 384.945 248.383H386.945C386.945 232.219 382.544 215.201 373.792 197.34L371.996 198.22ZM384.945 248.383C384.945 266.898 381.33 282.523 374.153 295.301L375.897 296.281C383.279 283.136 386.945 267.156 386.945 248.383H384.945ZM374.151 295.306C367.088 308.019 359.627 317.207 351.795 322.95L352.978 324.563C361.126 318.587 368.757 309.132 375.899 296.277L374.151 295.306ZM351.795 322.95C343.848 328.778 334.922 334.347 325.014 339.654L325.959 341.417C335.938 336.071 344.945 330.453 352.978 324.563L351.795 322.95ZM324.983 341.4C336.786 348.27 346.452 356.448 354.001 365.928L355.566 364.682C347.845 354.985 337.98 346.651 325.99 339.671L324.983 341.4ZM354.014 365.943C361.732 375.24 372.248 394.301 385.569 423.251L387.386 422.415C374.073 393.481 363.46 374.191 355.553 364.666L354.014 365.943ZM385.571 423.255L422.858 503.422L424.671 502.578L387.384 422.411L385.571 423.255ZM273.486 250.514C273.486 233.24 267.801 220.952 256.223 213.969L255.19 215.682C265.985 222.193 271.486 233.698 271.486 250.514H273.486ZM256.223 213.969C244.793 207.075 226.362 203.705 201.108 203.705V205.705C226.28 205.705 244.248 209.081 255.19 215.682L256.223 213.969ZM201.108 203.705H177.67V205.705H201.108V203.705ZM176.67 204.705V293.66H178.67V204.705H176.67ZM177.67 294.66H201.641V292.66H177.67V294.66ZM201.641 294.66C215.255 294.66 226.741 293.927 236.087 292.451C245.421 290.977 252.686 288.754 257.812 285.733L256.797 284.01C251.98 286.848 244.997 289.019 235.775 290.475C226.567 291.929 215.192 292.66 201.641 292.66V294.66ZM257.817 285.73C268.361 279.441 273.486 267.567 273.486 250.514H271.486C271.486 267.197 266.49 278.228 256.792 284.013L257.817 285.73ZM856.708 223.614V224.614H857.708V223.614H856.708ZM721.41 223.614V222.614H720.41V223.614H721.41ZM721.41 503V504H722.41V503H721.41ZM610.348 503H609.348V504H610.348V503ZM610.348 223.614H611.348V222.614H610.348V223.614ZM475.05 223.614H474.05V224.614H475.05V223.614ZM475.05 133.859V132.859H474.05V133.859H475.05ZM856.708 133.859H857.708V132.859H856.708V133.859ZM856.708 222.614H721.41V224.614H856.708V222.614ZM720.41 223.614V503H722.41V223.614H720.41ZM721.41 502H610.348V504H721.41V502ZM611.348 503V223.614H609.348V503H611.348ZM610.348 222.614H475.05V224.614H610.348V222.614ZM476.05 223.614V133.859H474.05V223.614H476.05ZM475.05 134.859H856.708V132.859H475.05V134.859ZM855.708 133.859V223.614H857.708V133.859H855.708Z" fill="black"/>
</svg>
